<?xml version="1.0" encoding="UTF-8" standalone="no"?>
<svg
   xmlns:dc="http://purl.org/dc/elements/1.1/"
   xmlns:cc="http://creativecommons.org/ns#"
   xmlns:rdf="http://www.w3.org/1999/02/22-rdf-syntax-ns#"
   xmlns:svg="http://www.w3.org/2000/svg"
   xmlns="http://www.w3.org/2000/svg"
   xmlns:sodipodi="http://sodipodi.sourceforge.net/DTD/sodipodi-0.dtd"
   xmlns:inkscape="http://www.inkscape.org/namespaces/inkscape"
   viewBox="0 0 749.38269 466.10834"
   height="466.10834"
   width="749.38269"
   xml:space="preserve"
   id="svg2"
   version="1.1"
   sodipodi:docname="acoustic-guitar-colourremix.svg"
   inkscape:version="0.91 r13725"><title
     id="title904">Acoustic guitar</title><sodipodi:namedview
     pagecolor="#ffffff"
     bordercolor="#666666"
     borderopacity="1"
     objecttolerance="10"
     gridtolerance="10"
     guidetolerance="10"
     inkscape:pageopacity="0"
     inkscape:pageshadow="2"
     inkscape:window-width="1916"
     inkscape:window-height="1035"
     id="namedview35"
     showgrid="false"
     fit-margin-top="0"
     fit-margin-left="0"
     fit-margin-right="0"
     fit-margin-bottom="0"
     inkscape:zoom="0.81831753"
     inkscape:cx="655.24087"
     inkscape:cy="350.05414"
     inkscape:window-x="4"
     inkscape:window-y="1"
     inkscape:window-maximized="1"
     inkscape:current-layer="g902" /><metadata
     id="metadata8"><rdf:RDF><cc:Work
         rdf:about=""><dc:format>image/svg+xml</dc:format><dc:type
           rdf:resource="http://purl.org/dc/dcmitype/StillImage" /><dc:title>Acoustic guitar</dc:title><cc:license
           rdf:resource="http://creativecommons.org/publicdomain/zero/1.0/" /></cc:Work><cc:License
         rdf:about="http://creativecommons.org/publicdomain/zero/1.0/"><cc:permits
           rdf:resource="http://creativecommons.org/ns#Reproduction" /><cc:permits
           rdf:resource="http://creativecommons.org/ns#Distribution" /><cc:permits
           rdf:resource="http://creativecommons.org/ns#DerivativeWorks" /></cc:License></rdf:RDF></metadata><defs
     id="defs6" /><g
     id="g902"
     transform="translate(0,-7.7066265e-6)"><g
       id="g4163"><rect
         transform="matrix(-0.92387953,0.38268344,0.38268344,0.92387953,0,0)"
         ry="3.2182474"
         y="273.48453"
         x="-589.86279"
         height="6.4364948"
         width="14.870522"
         id="rect4145"
         style="opacity:1;fill:#e0c270;fill-opacity:1;stroke:none;stroke-width:18;stroke-linecap:round;stroke-linejoin:round;stroke-miterlimit:4;stroke-dasharray:none;stroke-opacity:1" /><rect
         style="opacity:1;fill:#e0c270;fill-opacity:1;stroke:none;stroke-width:18;stroke-linecap:round;stroke-linejoin:round;stroke-miterlimit:4;stroke-dasharray:none;stroke-opacity:1"
         id="rect4147"
         width="14.870522"
         height="6.4364948"
         x="-617.22479"
         y="270.64438"
         ry="3.2182474"
         transform="matrix(-0.92387953,0.38268344,0.38268344,0.92387953,0,0)" /><rect
         transform="matrix(-0.92387953,0.38268344,0.38268344,0.92387953,0,0)"
         ry="3.2182474"
         y="268.87927"
         x="-644.86224"
         height="6.4364948"
         width="14.870522"
         id="rect4149"
         style="opacity:1;fill:#e0c270;fill-opacity:1;stroke:none;stroke-width:18;stroke-linecap:round;stroke-linejoin:round;stroke-miterlimit:4;stroke-dasharray:none;stroke-opacity:1" /><rect
         style="opacity:1;fill:#e0c270;fill-opacity:1;stroke:none;stroke-width:18;stroke-linecap:round;stroke-linejoin:round;stroke-miterlimit:4;stroke-dasharray:none;stroke-opacity:1"
         id="rect4151"
         width="14.870522"
         height="6.4364948"
         x="-648.85944"
         y="343.32611"
         ry="3.2182474"
         transform="matrix(-0.92387953,0.38268344,0.38268344,0.92387953,0,0)" /><rect
         transform="matrix(-0.92387953,0.38268344,0.38268344,0.92387953,0,0)"
         ry="3.2182474"
         y="343.54449"
         x="-621.54291"
         height="6.4364948"
         width="14.870522"
         id="rect4153"
         style="opacity:1;fill:#e0c270;fill-opacity:1;stroke:none;stroke-width:18;stroke-linecap:round;stroke-linejoin:round;stroke-miterlimit:4;stroke-dasharray:none;stroke-opacity:1" /><rect
         style="opacity:1;fill:#e0c270;fill-opacity:1;stroke:none;stroke-width:18;stroke-linecap:round;stroke-linejoin:round;stroke-miterlimit:4;stroke-dasharray:none;stroke-opacity:1"
         id="rect4155"
         width="14.870522"
         height="6.4364948"
         x="-594.44788"
         y="346.87976"
         ry="3.2182474"
         transform="matrix(-0.92387953,0.38268344,0.38268344,0.92387953,0,0)" /><path
         inkscape:connector-curvature="0"
         id="path4137"
         d="m 73.177226,196.88843 -46.977972,31.61979 -9.034226,71.37038 77.69434,129.18942 46.977972,18.97188 63.23958,-30.71637 53.30193,-75.88749 90.34225,-22.58557 25.29584,-27.10267 -7.22739,-45.17113 -46.97797,-89.43883 -21.68214,-18.06846 -37.94375,13.55134 -46.97797,37.04033 -57.81904,5.42053 z"
         style="fill:#dfcead;fill-rule:evenodd;stroke:none;stroke-width:1px;stroke-linecap:butt;stroke-linejoin:miter;stroke-opacity:1;fill-opacity:1" /><path
         id="path64"
         style="fill:#988c6e;fill-opacity:1;fill-rule:nonzero;stroke:none;stroke-width:0.13333333"
         d="m 342.06137,185.42701 c -9.532,-19.224 -25.48667,-51.39867 -48.32933,-51.39867 -2.00534,0 -4.1,0.24267 -6.22534,0.72 -20.16799,4.528 -35.34666,16.64533 -50.02666,28.36533 -12.004,9.584 -24.41733,19.49467 -39.18667,24.82933 -7.61066,2.748 -17.13866,4.028 -29.984,4.028 -8.68,0 -17.94133,-0.55333 -27.74666,-1.136 -10.3616,-0.616 -21.07627,-1.25333 -31.63613,-1.25333 -21.36507,0 -36.886936,2.71467 -48.846269,8.54267 -22.022933,10.73333 -36.4792,26.34533 -42.964666,46.40133 -9.5353865,29.488 -1.719733,68.05333 23.229733,114.624 l 1.054133,1.972 c 20.736533,38.732 49.134932,91.77866 95.464529,91.77866 6.24534,0 12.824,-0.95066 19.55467,-2.824 44.60533,-12.41733 63.95333,-40.48 81.02666,-65.236 11.72667,-17.008 22.804,-33.07466 40.26,-40.648 15.81067,-6.86266 31.70133,-10.52933 45.72133,-13.76533 28.39867,-6.55333 44.852,-11.16266 52.788,-29.67733 13.38667,-31.236 -10.38133,-64.264 -10.624,-64.59467 l -0.816,-1.11466 -0.56933,-1.25867 -1.52133,-3.37467 -13.32,6.608 1.29733,2.876 1.044,2.53467 1.836,2.42933 c 1.14933,1.67067 18.60133,27.67334 9.016,50.04 -4.91467,11.46667 -14.97467,14.708 -42.47067,21.05467 -0.72133,0.16667 -1.468,0.34133 -2.19866,0.50933 -14.1,3.26134 -29.87867,7.06267 -46.09867,14.10133 -21.19733,9.19867 -33.984,27.58267 -46.29733,45.43734 -0.0933,0.136 -0.18667,0.27066 -0.28,0.408 -16.40267,23.78666 -33.364,48.384 -72.77733,59.35333 -5.43333,1.51333 -10.672,2.28 -15.57067,2.28 -15.68426,0 -29.87386,-7.80933 -44.653597,-24.57733 -15.1172,-17.152 -27.119733,-39.572 -37.710399,-59.356 L 53.443777,352.135 c -22.644799,-42.272 -30.318666,-77.9 -22.189066,-103.03866 5.194267,-16.064 17.083866,-28.72 35.334399,-37.61334 9.8588,-4.80533 23.3104,-7.04266 42.33747,-7.04266 10.11826,0 20.60946,0.62533 30.75346,1.228 10.032,0.59733 19.50667,1.16133 28.62933,1.16133 14.62,0 25.752,-1.56 35.03067,-4.912 17.07733,-6.16667 30.46533,-16.856 43.412,-27.192 13.97867,-11.16 27.18133,-21.70133 44.01066,-25.47866 1.05734,-0.23734 2.056,-0.35867 2.96934,-0.35867 13.62533,0 28.616,30.22933 35.01733,43.14 1.128,2.27733 2.20133,4.44266 3.23333,6.44533 l 0.0587,0.132 13.5,-6.21333 -0.17333,-0.38134 c -1.03067,-1.99466 -2.13867,-4.228 -3.30667,-6.58399 m -79.18533,10.31733 c 15.604,0 29.78933,6.156 40.28666,16.152 l -14.928,6.87066 c -7.15199,-5.12933 -15.90533,-8.16266 -25.35866,-8.16266 -24.04933,0 -43.616,19.564 -43.616,43.61466 0,24.04667 19.56667,43.61467 43.616,43.61467 22.64266,0 41.30533,-17.34933 43.41066,-39.448 l 14.968,-7.42533 c 0.0587,1.07733 0.0947,2.16533 0.0947,3.25866 0,7.20667 -1.31733,14.108 -3.71333,20.48667 -8.32,22.16533 -29.724,37.988 -54.76,37.988 -13.94667,0 -26.76267,-4.916 -36.824,-13.096 -13.19867,-10.72933 -21.652,-27.08133 -21.652,-45.37867 0,-32.244 26.23333,-58.47466 58.476,-58.47466"
         inkscape:connector-curvature="0" /><path
         inkscape:connector-curvature="0"
         id="path4139"
         d="m 145.45103,266.45196 -2.71027,23.48899 21.68214,41.55744 14.45476,6.32396 5.42054,-9.03423 -28.0061,-59.62589 -7.22738,-8.1308 z"
         style="fill:#b5b3ad;fill-rule:evenodd;stroke:none;stroke-width:1px;stroke-linecap:butt;stroke-linejoin:miter;stroke-opacity:1;fill-opacity:1" /><path
         sodipodi:nodetypes="cccccccccccccccc"
         inkscape:connector-curvature="0"
         id="path4141"
         d="m 294.51575,219.47399 16.26161,33.42664 312.09461,-151.74245 4.53073,-3.673676 14.93073,-7.199939 28.53667,-3.873037 34.70291,-17.809104 34.33006,-14.454761 -28.90952,-44.2677053 -67.75669,36.1369023 -12.64792,19.875296 -16.02686,3.029591 -5.91969,2.73049 -68.61897,31.264393 -242.04424,112.94394 z"
         style="fill:#d7d3c8;fill-opacity:1;fill-rule:evenodd;stroke:none;stroke-width:1px;stroke-linecap:butt;stroke-linejoin:miter;stroke-opacity:1" /><path
         sodipodi:nodetypes="cccccsccscscscccssccccccssscccccccccccccccccccccccccccccccccccccccccccccccccccccccccccccccccccccccccccccccccccccccccsssccccccccccccsssccccccccccccsssccccccccccccssscccccccccccccccccccccccccccccccscccscccsccccccccccccccccccccccccccssccscccssscccccsccccsssccsssccsssccsssccssscccscccccccccccscccccccccccccsccccsssccsssccsssccccscccccccssscccccccsccccccsccccccccccsccccccsssccssscccccccscccccccccccccccccccsccsccccccccccscccsccccccccccccccscccccccccccccscccccccccccscccccccccccsccccc"
         id="path66"
         style="fill:#100f0d;fill-opacity:1;fill-rule:nonzero;stroke:none;stroke-width:0.13333333"
         d="m 376.21337,300.74967 c -7.93467,18.516 -24.388,23.12533 -52.78533,29.67866 -14.02,3.23467 -29.91067,6.90134 -45.72267,13.764 -17.456,7.57467 -28.53333,23.64 -40.26133,40.64667 -17.07067,24.75867 -36.42133,52.82133 -81.02667,65.23733 -6.72933,1.872 -13.30799,2.82267 -19.55466,2.82267 -46.3288,0 -74.7272,-53.04533 -95.463199,-91.77867 L 40.345378,359.151 c -24.95,-46.572 -32.7661595,-85.13733 -23.230266,-114.62533 6.485999,-20.05733 20.941732,-35.66933 42.964665,-46.40267 11.961467,-5.828 27.482266,-8.54133 48.847863,-8.54133 10.55987,0 21.27454,0.636 31.6364,1.25333 9.80267,0.58267 19.06533,1.136 27.744,1.136 12.84667,0 22.37467,-1.28133 29.98533,-4.02933 14.768,-5.33333 27.18134,-15.244 39.18534,-24.828 14.68133,-11.72 29.85866,-23.83866 50.02933,-28.36533 2.124,-0.47733 4.21733,-0.72 6.224,-0.72 l 0.001,0 c 22.84267,0 38.79467,32.17467 48.32667,51.39733 1.17066,2.35733 2.276,4.58933 3.308,6.584 l 0.17333,0.38267 -13.49867,6.21333 -28.88,13.29067 -14.928,6.87066 c -7.15199,-5.12933 -15.90533,-8.164 -25.35866,-8.164 -24.04933,0 -43.616,19.56534 -43.616,43.616 0,24.048 19.56667,43.61334 43.616,43.61334 22.644,0 41.30666,-17.34667 43.41066,-39.44667 l 14.96667,-7.42533 28.10933,-13.94534 13.32267,-6.60933 1.52,3.376 0.568,1.26 0.81733,1.11467 c 0.24267,0.33066 24.01067,33.35733 10.62267,64.59333 M 337.9027,219.49234 c 0.0747,-1.12534 1.01467,-1.99067 2.12667,-1.99067 l 0.14267,0.004 c 1.17466,0.08 2.06533,1.09867 1.98666,2.272 -0.0787,1.17333 -1.10133,2.07467 -2.26933,1.98533 -0.56933,-0.0387 -1.08933,-0.296 -1.46533,-0.724 -0.37467,-0.428 -0.56,-0.97866 -0.52134,-1.54666 m -11.55466,-13.76534 1.496,-0.69866 14.40666,30.82133 -1.49733,0.7 z m -7.976,3.904 1.49466,-0.7 14.408,30.824 -1.49733,0.69867 z m -1.90134,37.76667 -1.49733,0.70133 -14.40533,-30.824 1.496,-0.7 z m -8.94,-33.48133 1.49734,-0.70134 14.40666,30.824 -1.49733,0.7 z m 45.89867,16.996 -1.49733,0.69866 -14.40534,-30.82266 1.496,-0.7 z m -2.94267,-37.74267 14.404,30.824 -1.49466,0.7 -14.40534,-30.824 z m 14.16134,15.904 c -0.0787,1.176 -1.072,2.08133 -2.27067,1.98533 -1.17467,-0.0787 -2.06533,-1.09733 -1.98667,-2.26933 0.076,-1.12533 1.01734,-1.992 2.128,-1.992 l 0.14267,0.007 c 1.17467,0.0773 2.06533,1.096 1.98667,2.26933 m -4.79867,-21.66133 14.40533,30.82266 -1.49733,0.7 -14.404,-30.824 z m 13.052,-6.00133 15.63467,33.45199 -1.492,0.708 -15.65334,-33.48799 z m 11.076,-4.09867 14.40667,30.82533 -1.496,0.69867 -14.40667,-30.824 z m 8.24533,1.20267 0.14267,0.005 c 0.56933,0.0373 1.08933,0.29467 1.464,0.724 0.37333,0.428 0.56,0.97867 0.52133,1.54533 -0.08,1.17467 -1.108,2.07067 -2.268,1.988 -1.17466,-0.08 -2.06533,-1.09866 -1.988,-2.272 0.0773,-1.12533 1.01467,-1.99066 2.128,-1.99066 m 5.86,-7.59067 14.40534,30.824 -1.49734,0.69866 -14.40666,-30.82266 z m 14.292,-8.06267 14.40667,30.82267 -1.496,0.7 -14.40667,-30.82267 z m 15.724,-7.34933 14.988,32.072 -1.496,0.69866 -14.988,-32.07066 z m 15.04133,11.66667 c 1.17467,0 2.13067,0.95866 2.13067,2.132 0,1.176 -0.956,2.13333 -2.13067,2.13333 -1.176,0 -2.13333,-0.95733 -2.13333,-2.13333 0,-1.17334 0.95733,-2.132 2.13333,-2.132 m -0.50666,-17.77334 14.40533,30.82267 -1.49733,0.7 -14.40534,-30.82267 z m 16.43066,-7.68 14.40667,30.824 -1.49733,0.7 -14.40534,-30.824 z m 15.144,10.264 c 1.17734,0 2.13334,0.956 2.13334,2.132 0,1.176 -0.956,2.132 -2.13334,2.132 -1.176,0 -2.13066,-0.956 -2.13066,-2.132 0,-1.176 0.95466,-2.132 2.13066,-2.132 m 3.15467,-19.51866 14.40667,30.824 -1.496,0.7 -14.40667,-30.824 z m 19.45867,-8.824 14.40666,30.82533 -1.496,0.69733 -14.408,-30.82266 z m 18.19066,10.828 c 1.01867,0 1.84934,0.83066 1.84934,1.84933 0,1.02 -0.83067,1.85067 -1.84934,1.85067 -1.02,0 -1.84933,-0.83067 -1.84933,-1.85067 0,-1.01867 0.82933,-1.84933 1.84933,-1.84933 m 2.68,-20.83734 14.40534,30.82267 -1.496,0.7 -14.40667,-30.824 z m 22.45467,-10.49466 14.40666,30.824 -1.496,0.7 -14.40666,-30.824 z m 16.36933,10.66 c 1.02,0 1.84933,0.82933 1.84933,1.84933 0,1.01867 -0.82933,1.84933 -1.84933,1.84933 -1.02,0 -1.84933,-0.83066 -1.84933,-1.84933 0,-1.02 0.82933,-1.84933 1.84933,-1.84933 m 4.324,-19.977336 14.27067,30.533336 -1.496,0.69866 -14.29067,-30.575996 z M 403.18137,204.139 c -0.568,-0.0413 -1.08667,-0.29733 -1.46267,-0.724 -0.37333,-0.43066 -0.56133,-0.98 -0.52133,-1.54933 0.0387,-0.568 0.29467,-1.088 0.72267,-1.46267 0.392,-0.34266 0.88533,-0.52666 1.40133,-0.52666 l 0.148,0.005 c 1.17067,0.0787 2.06267,1.096 1.984,2.27067 -0.08,1.17333 -1.12133,2.056 -2.272,1.98666 M 374.52404,224.531 597.37203,113.97367 582.95603,83.129674 357.5387,186.871 l -0.27866,-0.61999 c -0.61867,-1.19067 -1.27334,-2.48667 -1.96267,-3.872 -1.03733,-2.07734 -2.15867,-4.35334 -3.368,-6.772 -1.21067,-2.41734 -2.51067,-4.97334 -3.90267,-7.60934 -1.39333,-2.63466 -2.88133,-5.34666 -4.46933,-8.07866 -1.58533,-2.73067 -3.27467,-5.47867 -5.06533,-8.18534 -0.59867,-0.9 -1.20667,-1.79866 -1.828,-2.688 -1.86267,-2.67066 -3.832,-5.27733 -5.91334,-7.76 -0.69466,-0.82666 -1.4,-1.64133 -2.12,-2.43866 -2.15866,-2.39334 -4.42933,-4.64134 -6.82,-6.684 -1.59333,-1.36267 -3.23866,-2.63467 -4.94266,-3.796 -1.70134,-1.16134 -3.456,-2.21467 -5.26667,-3.14 -2.71867,-1.388 -5.564,-2.48934 -8.54133,-3.244 -2.976,-0.756 -6.084,-1.16267 -9.328,-1.16267 -2.92667,0 -5.964,0.332 -9.11867,1.03867 -40.44933,9.08133 -61.088,42.928 -90.808,53.66 -1.70133,0.61466 -3.52666,1.12533 -5.45866,1.544 -5.79867,1.25866 -12.57734,1.69866 -20.03867,1.69866 -6.29867,0 -13.09333,-0.31733 -20.17867,-0.71733 -2.83066,-0.16 -5.70266,-0.32933 -8.61733,-0.50267 -4.88933,-0.29066 -9.8792,-0.57866 -14.9188,-0.796 -5.19053,-0.224 -10.43226,-0.37333 -15.6656,-0.37333 -3.62453,0 -7.24373,0.072 -10.841597,0.23867 -3.595867,0.168 -7.169333,0.43333 -10.698533,0.82 -4.7036,0.51333 -9.332267,1.244 -13.8348,2.248 -2.2516,0.50266 -4.472,1.07333 -6.654266,1.72 -3.2744,0.97066 -6.4656,2.112 -9.552,3.448 -1.0292,0.44666 -2.048533,0.91333 -3.052133,1.404 -2.910934,1.41733 -6.280267,3.19333 -9.8864,5.39199 -1.0324,0.628 -2.0828,1.29067 -3.146933,1.99067 -1.064,0.7 -2.1432,1.43333 -3.230667,2.20667 -1.088133,0.77333 -2.183867,1.58266 -3.285467,2.43333 -0.551066,0.424 -1.103066,0.86 -1.653599,1.304 -1.103734,0.88933 -2.208934,1.81867 -3.309467,2.78933 -0.55,0.48667 -1.099467,0.98134 -1.647333,1.488 -1.095867,1.01334 -2.186,2.068 -3.262534,3.168 -1.0776,1.09867 -2.1448,2.24134 -3.1932,3.42934 -3.148399,3.56533 -6.146399,7.53866 -8.852626,11.96266 -1.80416,2.948 -3.4786399,6.09734 -4.9822932,9.45867 -1.1296799,2.52133 -2.1598932,5.16267 -3.0786399,7.928 -0.6135466,1.84267 -1.17552,3.74267 -1.6817733,5.69733 -0.25312,0.97867 -0.4937466,1.972 -0.7177066,2.97734 -0.45052,2.01466 -0.8411467,4.084 -1.168752,6.216 -0.32864532,2.13066 -0.59322932,4.32 -0.78958264,6.57066 -0.19583333,2.25067 -0.32395866,4.56134 -0.37760453,6.93467 -0.05468746,2.37467 -0.03437497,4.80933 0.06458333,7.30933 0.04895854,1.25067 0.11875053,2.51734 0.2078132,3.79867 0.17916666,2.56533 0.44010399,5.19333 0.78645734,7.88933 2.7760452,21.56134 11.0979113,47.36267 27.6135913,78.19333 21.879599,40.84267 53.042665,100.72 108.160532,100.72 7.27067,0 14.96266,-1.044 23.09866,-3.30667 80.07334,-22.29066 86.70667,-90.74399 123.00267,-106.49333 43.752,-18.98666 88.88133,-11.83333 105.39066,-50.35733 16.50934,-38.524 -12.108,-77.59866 -12.108,-77.59866 z m -224.26267,62.02134 c 0,1.70933 -1.38666,3.09466 -3.09599,3.09466 -1.70934,0 -3.096,-1.38533 -3.096,-3.09466 0,-1.712 1.38666,-3.09734 3.096,-3.09734 1.70933,0 3.09599,1.38534 3.09599,3.09734 m 1.568,-12.944 c 1.22267,-0.612 2.71067,-0.12534 3.32667,1.09733 l 26.00267,51.596 c 0.616,1.22 0.124,2.708 -1.09734,3.32533 -0.356,0.17867 -0.73733,0.264 -1.11333,0.264 -0.904,0 -1.77733,-0.49867 -2.21067,-1.36267 l -26.00533,-51.59466 c -0.61733,-1.22 -0.124,-2.71067 1.09733,-3.32533 m 16.18,54.80266 c -1.70933,0 -3.096,-1.38533 -3.096,-3.096 0,-1.70933 1.38667,-3.096 3.096,-3.096 1.70934,0 3.096,1.38667 3.096,3.096 0,1.71067 -1.38666,3.096 -3.096,3.096 m -7.264,-10.84933 c 0,-1.708 1.38667,-3.09467 3.096,-3.09467 1.70934,0 3.096,1.38667 3.096,3.09467 0,1.71067 -1.38666,3.096 -3.096,3.096 -1.70933,0 -3.096,-1.38533 -3.096,-3.096 m -4.16933,-7.752 c 0,-1.70933 1.38667,-3.096 3.09467,-3.096 1.71066,0 3.09733,1.38667 3.09733,3.096 0,1.71067 -1.38667,3.096 -3.09733,3.096 -1.708,0 -3.09467,-1.38533 -3.09467,-3.096 m -4.168,-7.75333 c 0,-1.708 1.38533,-3.09467 3.09333,-3.09467 1.712,0 3.09734,1.38667 3.09734,3.09467 0,1.71066 -1.38534,3.096 -3.09734,3.096 -1.708,0 -3.09333,-1.38534 -3.09333,-3.096 m -4.16933,-7.75067 c 0,-1.71067 1.38533,-3.09733 3.09466,-3.09733 1.71067,0 3.09734,1.38666 3.09734,3.09733 0,1.70933 -1.38667,3.09333 -3.09734,3.09333 -1.70933,0 -3.09466,-1.384 -3.09466,-3.09333 M 130.79178,251.743 c 4.40293,11.69334 6.5416,22.54267 8.25626,32.19467 5.228,29.444 17.06,41.82666 22.56267,47.88 5.50266,6.05333 19.264,28.068 19.264,28.068 l 18.16,-8.80534 -51.732,-107.04399 z M 608.2187,71.503008 l 14.86,29.718662 -24.22534,12.01867 -14.39733,-30.801332 z M 205.63871,307.05234 c 5.62533,-4.31467 12.724,-6.508 20.41333,-7.45334 10.06,8.17734 22.87733,13.09467 36.824,13.09467 25.036,0 46.44,-15.82133 54.76,-37.98667 6.00933,13.89867 4.65733,29.30134 0.252,41.752 -14.1,3.26134 -29.87734,7.06267 -46.09733,14.1 -21.19734,9.2 -33.98534,27.584 -46.29867,45.43867 -24.812,-16.22667 -41.74933,-52.14534 -19.85333,-68.94533 M 731.59469,74.301674 c -0.25866,0.612 -0.73333,1.085334 -1.344,1.333334 l -7.26533,2.956 c -1.26933,0.516 -2.712,-0.09733 -3.22667,-1.362667 -0.51333,-1.264 0.0973,-2.712 1.36134,-3.226667 l 2.63733,-1.071999 0.73853,-0.237678 c 1.72168,-0.412054 2.43167,-1.051894 3.88947,-1.644989 0.29733,-0.121333 0.60933,-0.18 0.92267,-0.18 0.32933,0 0.65733,0.06533 0.97066,0.197333 0.612,0.257334 1.084,0.734667 1.33334,1.344 0.24666,0.608 0.24133,1.281333 -0.0173,1.893333 m -11.276,-13.117333 c -2.96266,0 -5.36533,-2.402666 -5.36533,-5.366666 0,-2.962667 2.40267,-5.365333 5.36533,-5.365333 2.964,0 5.36667,2.402666 5.36667,5.365333 0,2.964 -2.40267,5.366666 -5.36667,5.366666 m -17.4547,-32.595999 c -2.96267,0 -5.36534,-2.402666 -5.36534,-5.364 0,-2.965333 2.40267,-5.365333 5.36534,-5.365333 2.964,0 5.36666,2.4 5.36666,5.365333 0,2.961334 -2.40266,5.364 -5.36666,5.364 m -9.39867,42.914666 c -2.964,0 -5.36667,-2.402667 -5.36667,-5.365333 0,-2.964 2.40267,-5.366667 5.36667,-5.366667 2.96267,0 5.36533,2.402667 5.36533,5.366667 0,2.962666 -2.40266,5.365333 -5.36533,5.365333 m 3.59333,12.285333 1.37284,-0.457677 c 1.53668,-0.589368 2.56132,-1.1427 4.15253,-1.78899 0.30533,-0.125333 0.61866,-0.182666 0.93066,-0.182666 0.976,0 1.90534,0.582666 2.296,1.542666 0.51334,1.265334 -0.0947,2.713334 -1.36,3.228 l -7.26533,2.953333 c -1.26,0.513334 -2.71333,-0.09467 -3.22667,-1.358666 -0.51466,-1.266667 0.096,-2.714667 1.36,-3.228 z M 678.5747,42.301675 c -2.964,0 -5.36667,-2.402666 -5.36667,-5.365333 0,-2.962667 2.40267,-5.366666 5.36667,-5.366666 2.96266,0 5.36533,2.403999 5.36533,5.366666 0,2.962667 -2.40267,5.365333 -5.36533,5.365333 m 12.19066,-31.273332 c -0.604,0.248 -1.28,0.242666 -1.892,-0.01733 -0.61333,-0.256 -1.08667,-0.734666 -1.336,-1.3439996 -0.24533,-0.608 -0.23867,-1.2799999 0.0187,-1.8919999 0.25733,-0.6133333 0.736,-1.0866667 1.34533,-1.3346667 l 7.26267,-2.9546666 c 0.29733,-0.1213333 0.61066,-0.1813333 0.924,-0.1813333 0.32933,0 0.65866,0.066667 0.97066,0.1986667 0.61334,0.2573333 1.084,0.7346666 1.33334,1.3439999 0.24666,0.608 0.24266,1.2813333 -0.0173,1.8933333 -0.25866,0.612 -0.736,1.0866667 -1.34533,1.3333333 z m -11.752,83.927998 c 0.30534,-0.122667 0.62,-0.182667 0.92934,-0.182667 0.97733,0 1.90799,0.582667 2.29733,1.542667 0.51333,1.265333 -0.096,2.714666 -1.36133,3.228 l -7.26534,2.955999 c -1.26,0.51333 -2.71066,-0.0973 -3.22533,-1.36267 -0.51467,-1.26533 0.096,-2.713329 1.36133,-3.226663 z M 665.52803,23.411009 c -1.26667,0.517333 -2.712,-0.09733 -3.22533,-1.361333 -0.51467,-1.265334 0.0947,-2.713333 1.35866,-3.228 l 7.264,-2.954667 c 0.29734,-0.12 0.60934,-0.181333 0.92534,-0.181333 0.328,0 0.65733,0.06667 0.96933,0.198667 0.612,0.257333 1.08667,0.734666 1.33333,1.344 0.248,0.609333 0.24267,1.281333 -0.016,1.893333 -0.25866,0.612 -0.736,1.086666 -1.34533,1.334666 z m 0.30667,60.102665 c -2.964,0 -5.36534,-2.401333 -5.36534,-5.366666 0,-2.962667 2.40134,-5.365333 5.36534,-5.365333 2.964,0 5.36533,2.402666 5.36533,5.365333 0,2.965333 -2.40133,5.366666 -5.36533,5.366666 M 653.07203,55.817675 c -2.964,0 -5.36667,-2.402667 -5.36667,-5.365333 0,-2.964 2.40267,-5.366667 5.36667,-5.366667 2.96267,0 5.36533,2.402667 5.36533,5.366667 0,2.962666 -2.40266,5.365333 -5.36533,5.365333 m -11.11467,-18.992 c -0.604,0.246667 -1.27866,0.242667 -1.89333,-0.01733 -0.612,-0.257333 -1.08667,-0.734667 -1.33467,-1.345333 -0.24666,-0.606667 -0.24133,-1.28 0.0187,-1.892 0.25733,-0.612 0.73333,-1.086667 1.34267,-1.333333 l 7.26533,-2.956 c 0.296,-0.12 0.60933,-0.181334 0.92267,-0.181334 0.328,0 0.656,0.06667 0.972,0.198667 0.61066,0.258667 1.084,0.736 1.33333,1.344 0.24533,0.609333 0.24,1.281333 -0.0187,1.893333 -0.25866,0.612 -0.73466,1.086667 -1.34533,1.334667 z m 89.604,31.196 c -1.42667,-0.602667 -2.99333,-0.612 -4.42133,-0.03333 l -2.22,0.902667 -2.47734,-3.445333 26.94,-12.104 -26.416,-49.9439988 c 0,0 -10.44933,5.3079999 -23.98533,12.1599998 l -1.38267,-3.744 1.676,-0.681333 c 1.424,-0.578667 2.54267,-1.6840002 3.14267,-3.1093335 0.60133,-1.4253333 0.612,-2.9946666 0.0333,-4.4199999 -0.58133,-1.4266667 -1.68533,-2.5426666 -3.10933,-3.14266662 -1.424,-0.60133331 -2.99333,-0.61466665 -4.42267,-0.0333333 L 687.656,3.3816802 c -1.42534,0.58 -2.54134,1.684 -3.14267,3.1093333 -0.60133,1.4253333 -0.612,2.9946666 -0.0347,4.4199995 0.58134,1.425334 1.68534,2.542667 3.11067,3.142667 0.72533,0.308 1.49067,0.46 2.25333,0.46 0.73467,0 1.468,-0.142667 2.168,-0.426667 l 2.52667,-1.028 1.86358,4.876344 1.09375,-1.62301 c -7.65466,3.873333 -16.17999,8.183999 -24.31333,12.282666 l 1.88674,0.01613 -2.38274,-4.546802 1.35067,-0.549333 c 1.42667,-0.58 2.544,-1.684 3.14533,-3.109333 0.59867,-1.426667 0.61067,-2.996 0.0307,-4.421333 -0.57867,-1.425334 -1.68267,-2.541334 -3.108,-3.142667 -1.42533,-0.601333 -2.99467,-0.616 -4.42267,-0.032 l -7.264,2.953333 c -2.94933,1.2 -4.376,4.578667 -3.17333,7.530667 0.90933,2.241333 3.07733,3.601333 5.36,3.601333 0.72133,0 1.45733,-0.137333 2.16667,-0.425333 l 2.84,-1.154667 2.12266,4.009333 c -8.53733,4.301333 -16.54666,8.321333 -22.53866,11.298667 l -1.024,-2.761334 2.29466,-0.932 c 1.42534,-0.58 2.54267,-1.684 3.144,-3.109333 0.6,-1.426666 0.61067,-2.996 0.032,-4.421333 -0.58,-1.425333 -1.68266,-2.54 -3.10933,-3.141333 -1.42533,-0.602667 -2.99467,-0.614667 -4.42133,-0.03333 l -7.264,2.954667 c -1.42534,0.578667 -2.54134,1.685333 -3.14267,3.108 -0.6,1.425333 -0.61333,2.996 -0.0333,4.42 0.58,1.426666 1.68533,2.542666 3.11066,3.144 0.72534,0.306666 1.48934,0.458666 2.25067,0.458666 0.736,0 1.47067,-0.141333 2.16933,-0.425333 l 1.90934,-0.777333 1.49824,3.630802 1.09242,-1.373469 c -4.34666,2.154667 -7.42266,3.652 -8.52533,4.136 -2.064,8.253333 -15.68533,19.811999 -25.17867,23.525333 0,0 11.144,21.051999 13.208,28.481332 0,0 19.81334,-7.017333 32.37867,-3.814666 l 11.65333,-5.237334 -1.54266,0.698667 2.308,5.089333 -1.49867,0.609334 c -2.95067,1.2 -4.37467,4.577333 -3.176,7.530676 0.912,2.24 3.08,3.59999 5.36133,3.59999 0.724,0 1.45734,-0.13599 2.16934,-0.42534 l 7.26533,-2.95466 c 2.95066,-1.20133 4.376,-4.577333 3.17466,-7.530666 -1.2,-2.952 -4.57866,-4.377334 -7.52799,-3.174667 l -2.70667,1.1 -2.35733,-5.202667 22.25578,-10.163508 -1.404,0.469266 1.73488,2.840909 -1.21867,0.496 c -2.95066,1.2 -4.37466,4.577334 -3.17466,7.530667 0.91066,2.24 3.07733,3.6 5.35866,3.6 0.724,0 1.46,-0.136 2.17067,-0.426667 l 7.26533,-2.953333 c 2.95067,-1.201334 4.37467,-4.578667 3.17467,-7.530667 -1.2,-2.950666 -4.57733,-4.376 -7.52933,-3.174666 l -2.944,1.197333 -1.664,-2.68 24.17733,-10.864 -1.69256,0.612774 2.55789,3.421893 -1.9,0.772 c -2.95066,1.2 -4.37466,4.578666 -3.17466,7.530666 0.912,2.24 3.07866,3.6 5.36,3.6 0.724,0 1.46,-0.136 2.17066,-0.425333 l 7.264,-2.953333 c 1.42534,-0.581334 2.54134,-1.685334 3.144,-3.109334 0.6,-1.426666 0.61067,-2.997333 0.032,-4.421333 -0.58133,-1.425333 -1.684,-2.542666 -3.10933,-3.142666"
         inkscape:connector-curvature="0" /><path
         id="path68"
         style="fill:#100f0d;fill-opacity:1;fill-rule:nonzero;stroke:none;stroke-width:0.13333333"
         d="m 136.21204,354.747 0.0653,0.0307 -0.0653,-0.0307"
         inkscape:connector-curvature="0" /></g></g></svg>