<svg xmlns="http://www.w3.org/2000/svg" viewBox="0 0 256 256">
  <!-- TechBooth app icon, D2 house style (see fedup.d2audio.io):
       warm ink ground, acid accent. The booth as the room sees it —
       one lit window at the back of a dark house, the crew inside,
       on-air tally burning. -->
  <rect width="256" height="256" rx="56" fill="#10100e"/>
  <!-- faint house rows below the booth (the room it serves) -->
  <g fill="#ffffff" opacity="0.14">
    <rect x="48" y="196" width="34" height="8" rx="4"/>
    <rect x="94" y="196" width="34" height="8" rx="4"/>
    <rect x="140" y="196" width="34" height="8" rx="4"/>
    <rect x="186" y="196" width="22" height="8" rx="4"/>
    <rect x="60" y="216" width="34" height="8" rx="4"/>
    <rect x="106" y="216" width="34" height="8" rx="4"/>
    <rect x="152" y="216" width="34" height="8" rx="4"/>
  </g>
  <!-- the lit booth window -->
  <rect x="40" y="76" width="176" height="92" rx="18" fill="#d8ff35"/>
  <!-- the crew: three heads at the consoles -->
  <g fill="#10100e">
    <circle cx="86" cy="130" r="15"/>
    <circle cx="128" cy="126" r="15"/>
    <circle cx="170" cy="130" r="15"/>
    <rect x="52" y="146" width="152" height="22" rx="10" opacity="0.9"/>
  </g>
  <!-- on-air tally -->
  <circle cx="216" cy="60" r="10" fill="#ff4438"/>
</svg>
