<svg xmlns="http://www.w3.org/2000/svg" viewBox="0 0 256 256">
  <!-- TechBooth app icon — the booth as the room sees it: a lit window
       at the back of a dark house, the crew inside, tally light on.
       D2 dark tile, signal amber. -->
  <rect width="256" height="256" rx="56" fill="#0E0E10"/>
  <!-- faint house rows below the booth (the room it serves) -->
  <g fill="#26262B">
    <rect x="48" y="196" width="34" height="8" rx="4"/>
    <rect x="94" y="196" width="34" height="8" rx="4"/>
    <rect x="140" y="196" width="34" height="8" rx="4"/>
    <rect x="186" y="196" width="22" height="8" rx="4"/>
    <rect x="60" y="216" width="34" height="8" rx="4"/>
    <rect x="106" y="216" width="34" height="8" rx="4"/>
    <rect x="152" y="216" width="34" height="8" rx="4"/>
  </g>
  <!-- the lit booth window -->
  <rect x="40" y="76" width="176" height="92" rx="18" fill="#FFB020"/>
  <!-- the crew: three heads at the consoles -->
  <g fill="#0E0E10">
    <circle cx="86" cy="130" r="15"/>
    <circle cx="128" cy="126" r="15"/>
    <circle cx="170" cy="130" r="15"/>
    <rect x="52" y="146" width="152" height="22" rx="10" opacity="0.85"/>
  </g>
  <!-- tally light: the booth is live -->
  <circle cx="216" cy="60" r="10" fill="#3DDC84"/>
</svg>
